<?xml version="1.0" encoding="UTF-8"?>
<svg version="1.1" xmlns="http://www.w3.org/2000/svg" width="2000" height="1500">
<path d="M0 0 C660 0 1320 0 2000 0 C2000 495 2000 990 2000 1500 C1340 1500 680 1500 0 1500 C0 1005 0 510 0 0 Z " fill="#001F3F" transform="translate(0,0)"/>
<path d="M0 0 C80.09288098 0 80.09288098 0 104.5 23 C109.99349469 28.17363317 115.49308147 33.34065819 121 38.5 C126.50691905 43.65934231 132.00631612 48.82656731 137.5 54 C145.6549815 61.67915808 153.82546517 69.34166668 162 77 C170.89104044 85.32959339 179.77475051 93.66679511 188.64428711 102.01928711 C193.42368069 106.51911374 198.2095707 111.01192521 203 115.5 C209.22349113 121.33068695 215.43601959 127.17290005 221.64453125 133.01953125 C226.42385701 137.51926208 231.20965465 142.01200386 236 146.5 C242.22349113 152.33068695 248.43601959 158.17290005 254.64453125 164.01953125 C259.42385706 168.51926213 264.20967322 173.01198399 269 177.5 C278.06291649 185.99153203 287.10421184 194.50596918 296.14550781 203.02050781 C308.57159793 214.72334299 308.57159793 214.72334299 321.0246582 226.39746094 C324.50316217 229.65150344 327.96883356 232.91794651 331.41796875 236.203125 C332.14298584 236.89075928 332.86800293 237.57839355 333.61499023 238.28686523 C335.00482765 239.60550229 336.3912474 240.92775402 337.77368164 242.25415039 C338.40008545 242.84703857 339.02648926 243.43992676 339.671875 244.05078125 C340.2194043 244.57325439 340.76693359 245.09572754 341.33105469 245.6340332 C343.11925425 247.09760496 344.90231848 248.04518339 347 249 C353.62451715 243.07830972 360.17608587 237.08353207 366.69921875 231.05078125 C373.4078422 224.84683239 380.1346369 218.66313207 386.9375 212.5625 C391.90238091 208.10602289 396.80134952 203.58051938 401.69921875 199.05078125 C408.4078422 192.84683239 415.1346369 186.66313207 421.9375 180.5625 C426.39286804 176.56482627 430.79083519 172.50799115 435.18334961 168.44165039 C438.43365351 165.43603927 441.70297075 162.45448076 445 159.5 C449.94590436 155.06629286 454.82286654 150.5605658 459.69921875 146.05078125 C466.4078422 139.84683239 473.1346369 133.66313207 479.9375 127.5625 C484.90238091 123.10602289 489.80134952 118.58051938 494.69921875 114.05078125 C501.4078422 107.84683239 508.1346369 101.66313207 514.9375 95.5625 C519.90238091 91.10602289 524.80134952 86.58051938 529.69921875 82.05078125 C536.4078422 75.84683239 543.1346369 69.66313207 549.9375 63.5625 C554.90238091 59.10602289 559.80134952 54.58051938 564.69921875 50.05078125 C571.4078422 43.84683239 578.1346369 37.66313207 584.9375 31.5625 C588.77916592 28.11422067 592.58457119 24.62931653 596.375 21.125 C596.91954834 20.62170166 597.46409668 20.11840332 598.02514648 19.59985352 C600.24006802 17.55226853 602.45474357 15.50441803 604.66894531 13.45605469 C606.2777559 11.96902278 607.88863922 10.48426754 609.5 9 C610.4384375 8.13375 611.376875 7.2675 612.34375 6.375 C633.43956135 -12.48713721 668.70135204 0 697 0 C697 182.16 697 364.32 697 552 C622.09 552 547.18 552 470 552 C469.67 493.26 469.34 434.52 469 374 C463.07469165 380.46397275 457.16111031 386.9219661 451.3046875 393.4453125 C446.43442553 398.84387407 441.5034276 404.18730431 436.58398438 409.54101562 C431.12898209 415.47889501 425.69808111 421.43642391 420.3125 427.4375 C417.25709826 430.82321544 414.17143016 434.1808191 411.0859375 437.5390625 C408.20577393 440.67667086 405.34468386 443.83020941 402.5 447 C396.91080217 453.22569011 391.24475942 459.38053078 385.58398438 465.54101562 C380.12898209 471.47889501 374.69808111 477.43642391 369.3125 483.4375 C366.25709826 486.82321544 363.17143016 490.1808191 360.0859375 493.5390625 C356.46992343 497.47829571 352.89102241 501.4494338 349.3203125 505.4296875 C346.68920204 508.34428461 344.03346561 511.23538313 341.375 514.125 C337.17813249 518.68855578 333.04747761 523.3032683 329 528 C327.8717446 526.8717446 326.74385044 525.74312686 325.6171875 524.61328125 C324.46082551 523.4597124 323.29870256 522.31190691 322.1328125 521.16796875 C318.26162829 517.34950494 314.58493801 513.44488229 311.0390625 509.32421875 C308.45246655 506.37589578 305.79163286 503.50085394 303.125 500.625 C298.80232453 495.96076165 294.52183195 491.26305663 290.27734375 486.52734375 C287.70190242 483.66917816 285.10316201 480.83287917 282.5 478 C279.16671251 474.37256511 275.85053693 470.73106924 272.5625 467.0625 C269.07551903 463.17629402 265.54668015 459.33157193 262 455.5 C257.72025045 450.87647389 253.48241392 446.21907665 249.27734375 441.52734375 C246.70190225 438.66917797 244.10314236 435.83289739 241.5 433 C238.14706883 429.35072829 234.81001643 425.68830402 231.5 422 C226.37680716 416.29338306 221.18880061 410.64684646 216 405 C213.21461242 401.96872993 210.43021804 398.93659645 207.65234375 395.8984375 C205.89923251 393.98266645 204.14149088 392.07112128 202.37890625 390.1640625 C201.57324219 389.28492188 200.76757812 388.40578125 199.9375 387.5 C199.22464844 386.7265625 198.51179687 385.953125 197.77734375 385.15625 C196.13553164 383.1644252 195.03244156 381.35375278 194 379 C193.34 379 192.68 379 192 379 C192 436.09 192 493.18 192 552 C128.64 552 65.28 552 0 552 C0 369.84 0 187.68 0 0 Z " fill="#6BBDF3" transform="translate(319,363)"/>
<path d="M0 0 C0.78893646 0.03902435 1.57787292 0.07804871 2.39071655 0.11825562 C65.63783779 3.37493233 130.07723012 21.39781932 175.1875 68.3125 C210.16666665 107.32772434 227.52243152 156.29722688 224.67626953 208.62988281 C224.28384146 213.83038855 223.58595666 218.96934953 222.8125 224.125 C222.6995459 224.94581055 222.5865918 225.76662109 222.47021484 226.61230469 C218.26628073 256.56322483 206.56598029 285.31650505 187.8125 309.125 C186.75869141 310.49205078 186.75869141 310.49205078 185.68359375 311.88671875 C177.09014578 322.7274404 167.58101734 333.40323852 156.8125 342.125 C155.67632353 343.08373571 154.54099573 344.04347756 153.40625 345.00390625 C143.69155525 353.14499924 133.514019 360.34006035 122.8125 367.125 C121.85730469 367.73085938 120.90210938 368.33671875 119.91796875 368.9609375 C117.8125 370.125 117.8125 370.125 115.8125 370.125 C118.89846219 374.87944893 122.22879785 379.38612415 125.6875 383.875 C126.53199707 384.97557739 126.53199707 384.97557739 127.39355469 386.09838867 C132.18628001 392.33514389 137.02202604 398.53823782 141.85864258 404.7409668 C145.7931236 409.79392922 149.66164012 414.88824072 153.48828125 420.0234375 C157.98558859 426.02488628 162.56180844 431.96651994 167.12304688 437.91943359 C169.31570791 440.78193356 171.50601866 443.64622618 173.69604492 446.51074219 C174.77676729 447.9242833 175.8576602 449.33769404 176.9387207 450.75097656 C179.63723856 454.27884242 182.33403552 457.80799869 185.02734375 461.33984375 C190.60627817 468.65177646 196.21569117 475.93755473 201.875 483.1875 C206.84157752 489.55223457 211.7281731 495.97030803 216.55712891 502.43994141 C220.38640844 507.56823529 224.27245217 512.64856565 228.18359375 517.71484375 C231.24010289 521.67454606 234.27583387 525.65007285 237.3125 529.625 C241.20137084 534.7137132 245.09450914 539.79903002 249 544.875 C249.78632812 545.89851562 250.57265625 546.92203125 251.3828125 547.9765625 C253.12005143 550.22771133 254.86432794 552.47204138 256.6171875 554.7109375 C257.07843018 555.30293945 257.53967285 555.89494141 258.01489258 556.50488281 C258.89934834 557.63970417 259.78703922 558.7720141 260.6784668 559.90136719 C262.55776165 562.31842243 263.83482298 564.19196895 264.8125 567.125 C230.27296313 567.65204942 195.73434775 568.05701854 161.19165482 568.29950258 C157.10888311 568.32826703 153.02611929 568.35803661 148.94335938 568.38842773 C148.13059389 568.39446087 147.3178284 568.40049401 146.48043366 568.40670998 C133.33897531 568.50665304 120.19984331 568.68791063 107.05976276 568.89951431 C93.56523247 569.11500485 80.07191574 569.24243308 66.57573569 569.28903538 C58.25371545 569.32052023 49.93826927 569.4197058 41.61827518 569.60707874 C35.9038517 569.72917463 30.1927977 569.76529843 24.47716628 569.73553168 C21.18130355 569.72085594 17.89919268 569.75515801 14.60486412 569.86672592 C-1.5038528 570.38531989 -1.5038528 570.38531989 -8.1875 567.125 C-14.17162185 561.51051595 -17.63483142 554.23649874 -20.94155383 546.83635819 C-22.58394124 543.26228681 -24.56070773 540.05149595 -26.67578125 536.73828125 C-27.9506576 534.63810385 -29.22539856 532.53784426 -30.5 530.4375 C-31.21092243 529.26626689 -31.92186044 528.09504325 -32.6328125 526.92382812 C-34.09332036 524.51777647 -35.55376477 522.11168633 -37.01416016 519.70556641 C-40.21824083 514.42670482 -43.42315795 509.14835107 -46.62802124 503.8699646 C-48.39788263 500.95499774 -50.16768847 498.03999714 -51.9375 495.125 C-52.64583307 493.95833317 -53.3541664 492.79166651 -54.0625 491.625 C-55.47916667 489.29166667 -56.89583333 486.95833333 -58.3125 484.625 C-58.83841484 483.75878777 -58.83841484 483.75878777 -59.37495422 482.87507629 C-60.08344121 481.70815596 -60.79192713 480.54123498 -61.50041199 479.37431335 C-63.26888578 476.46152253 -65.0373779 473.54874284 -66.8059082 470.63598633 C-70.02102067 465.34067855 -73.23599535 460.04528736 -76.45028687 454.7494812 C-77.90916781 452.34588266 -79.36815525 449.94234877 -80.82714844 447.53881836 C-81.8106482 445.91851853 -82.79400112 444.29812957 -83.77734375 442.67773438 C-90.57038422 431.48716669 -97.38085622 420.30734335 -104.1875 409.125 C-104.6825 487.335 -104.6825 487.335 -105.1875 567.125 C-179.7675 567.125 -254.3475 567.125 -331.1875 567.125 C-331.1875 384.965 -331.1875 202.805 -331.1875 15.125 C-328.44664579 14.21138193 -326.45092261 13.91203267 -323.6013031 13.72795105 C-322.65776946 13.66505229 -321.71423582 13.60215353 -320.74211025 13.53734875 C-319.70629346 13.4724138 -318.67047667 13.40747885 -317.60327148 13.34057617 C-316.50780282 13.26875028 -315.41233416 13.19692438 -314.28366947 13.12292194 C-310.62554984 12.88408721 -306.96708638 12.65101467 -303.30859375 12.41796875 C-300.73520848 12.2511784 -298.16184457 12.08405814 -295.58850098 11.91662598 C-289.40625617 11.51542189 -283.22377631 11.11804625 -277.04114473 10.72285163 C-272.05088772 10.40387024 -267.0607109 10.08366303 -262.07058716 9.76260376 C-246.73682467 8.7762407 -231.40272156 7.79536041 -216.06829929 6.81931019 C-208.74186062 6.35264637 -201.41566599 5.88249131 -194.08984375 5.40625 C-62.91275191 -3.11773963 -62.91275191 -3.11773963 0 0 Z " fill="#6676F0" transform="translate(1431.1875,347.875)"/>
<path d="M0 0 C9.03287247 8.58522569 12.09616883 21.14560195 12.5859375 33.2265625 C13.0105084 60.97134777 4.37858114 81.82837937 -14.63012695 101.84057617 C-26.41466797 113.89223565 -40.03851403 123.42934754 -54.75 131.5625 C-55.55727539 132.01061035 -56.36455078 132.4587207 -57.19628906 132.92041016 C-68.78452073 139.29242813 -80.60089163 144.98273397 -92.75 150.1875 C-94.5302356 150.95090698 -94.5302356 150.95090698 -96.34643555 151.72973633 C-101.82553919 154.03873381 -106.99716415 155.91883262 -112.75 157.5625 C-112.75 113.0125 -112.75 68.4625 -112.75 22.5625 C-54.72087379 -1.72876214 -54.72087379 -1.72876214 -45.8125 -4.25 C-45.13638672 -4.45302734 -44.46027344 -4.65605469 -43.76367188 -4.86523438 C-28.78103445 -9.20948235 -12.69882387 -9.97764732 0 0 Z " fill="#001F3F" transform="translate(1437.75,496.4375)"/>
</svg>
